# xmcd
#
# Track frame offsets: 
#        150
#        2395
#        19036
#        38222
#        53548
#        68012
#        85932
#        104863
#        116398
#        135108
#        152464
#        166144
#        185265
#        203794
#        221853
#        239787
#        254014
#        274270
#        290305
#        306076
#        322151
#        333731
#        350380
#
# Disc length: 4756 seconds
#
# Revision: 0
# Processed by: cddbd v1.5.2PL0 Copyright (c) Steve Scherf et al.
# Submitted via: ExactAudioCopy v0.99pb4
#
DISCID=4c129217
DTITLE=Rihanna and Beyonce - The Don Divas
DYEAR=2009
DGENRE=R&B
TTITLE0=Rihanna - The Wait Is Ova
TTITLE1=Rihanna - Russian Roulette
TTITLE2=Rihanna (Feat. Jay-Z and Kanye West) - Run This Town
TTITLE3=Rihanna - Te Amo
TTITLE4=Rihanna (Feat. The Dream) - Whipping My Hair
TTITLE5=Rihanna - Like It
TTITLE6=Rihanna (Feat. The Dream) - Hatin On The Club
TTITLE7=Rihanna (Feat. Chris Brown) - Bad Girl
TTITLE8=Rihanna (Feat. Chris Brown and Jay-Z) - Cinderella (Umbrella Rem
TTITLE8=ix)
TTITLE9=Rihanna - Cry (UK Release Only)
TTITLE10=Rihanna (Feat. Nicole Scherzinger) - Winning Woman
TTITLE11=Beyonce - Control
TTITLE12=Beyonce - Slow Love
TTITLE13=Beyonce - Poison
TTITLE14=Beyonce - U Are My Roc
TTITLE15=Beyonce - I'm Alone Now
TTITLE16=Beyonce - Save The Hero
TTITLE17=Beyonce - Why Don't You Love Me
TTITLE18=Beyonce - Trust In Me
TTITLE19=Beyonce - Stop Sign
TTITLE20=Beyonce - Proud To Be An American
TTITLE21=Beyonce - Settle 4 U
TTITLE22=Beyonce - Ice Cream
EXTD=
EXTT0=
EXTT1=
EXTT2=
EXTT3=
EXTT4=
EXTT5=
EXTT6=
EXTT7=
EXTT8=
EXTT9=
EXTT10=
EXTT11=
EXTT12=
EXTT13=
EXTT14=
EXTT15=
EXTT16=
EXTT17=
EXTT18=
EXTT19=
EXTT20=
EXTT21=
EXTT22=
PLAYORDER=
